<svg xmlns="http://www.w3.org/2000/svg" viewBox="0 0 48 48" height="48" width="48"><g><path d="M46 15a2 2 0 0 0 -2 2v26a1 1 0 0 1 -1 1h-38a1 1 0 0 1 -1 -1v-38a1 1 0 0 1 1 -1h25.5a2 2 0 0 0 0 -4H4a4 4 0 0 0 -4 4v40a4 4 0 0 0 4 4h40a4 4 0 0 0 4 -4V17a2 2 0 0 0 -2 -2Z" fill="#000000" stroke-width="2"></path><path d="M35 20.5H38a1.5 1.5 0 0 0 0 -3h-3a4.32 4.32 0 0 0 -4.5 4.1 6.18 6.18 0 0 0 3.68 5.16c1.62 1.04 2.32 1.62 2.32 2.64 0 0.6 -0.68 1.1 -1.5 1.1H32a1.5 1.5 0 0 0 0 3h3a4.32 4.32 0 0 0 4.5 -4.1 6.18 6.18 0 0 0 -3.68 -5.16c-1.62 -1.04 -2.32 -1.62 -2.32 -2.64 0 -0.6 0.68 -1.1 1.5 -1.1Z" fill="#000000" stroke-width="2"></path><path d="M15 33.5a1.52 1.52 0 0 0 1.5 -1.5v-10.4A4.32 4.32 0 0 0 12 17.5a4.32 4.32 0 0 0 -4.5 4.1V32a1.5 1.5 0 0 0 3 0v-3.2a0.5 0.5 0 0 1 0.5 -0.5h2a0.5 0.5 0 0 1 0.5 0.5V32a1.52 1.52 0 0 0 1.5 1.5Zm-2 -8.2h-2a0.5 0.5 0 0 1 -0.5 -0.5v-3.2c0 -0.6 0.68 -1.1 1.5 -1.1s1.5 0.5 1.5 1.1v3.2a0.5 0.5 0 0 1 -0.5 0.5Z" fill="#000000" stroke-width="2"></path><path d="M19.5 19V32a1.52 1.52 0 0 0 1.5 1.5 7.14 7.14 0 0 0 7.5 -6.7v-2.6a7.14 7.14 0 0 0 -7.5 -6.7 1.52 1.52 0 0 0 -1.5 1.5Zm3 2.44a0.44 0.44 0 0 1 0.24 -0.42 0.46 0.46 0 0 1 0.48 0 3.66 3.66 0 0 1 2.28 3.22v2.6A3.66 3.66 0 0 1 23.22 30a0.5 0.5 0 0 1 -0.48 0 0.5 0.5 0 0 1 -0.24 -0.44Z" fill="#000000" stroke-width="2"></path><path d="M47.42 3.42A2 2 0 1 0 44.58 0.58l-2.22 2.24a0.5 0.5 0 0 1 -0.72 0L39.42 0.58a2 2 0 0 0 -2.84 2.84l2.24 2.22a0.5 0.5 0 0 1 0 0.72l-2.24 2.22a2 2 0 0 0 0 2.84 2 2 0 0 0 2.84 0l2.22 -2.24a0.5 0.5 0 0 1 0.72 0l2.22 2.24a2 2 0 0 0 2.84 0 2 2 0 0 0 0 -2.84l-2.24 -2.22a0.5 0.5 0 0 1 0 -0.72Z" fill="#000000" stroke-width="2"></path></g></svg>